<?xml version="1.0" encoding="utf-8"?>
<!-- Generator: Adobe Illustrator 16.0.0, SVG Export Plug-In . SVG Version: 6.00 Build 0)  -->
<!DOCTYPE svg PUBLIC "-//W3C//DTD SVG 1.1//EN" "http://www.w3.org/Graphics/SVG/1.1/DTD/svg11.dtd">
<svg version="1.1" id="Layer_1" xmlns="http://www.w3.org/2000/svg" xmlns:xlink="http://www.w3.org/1999/xlink" x="0px" y="0px"
	 width="2295px" height="2284px" viewBox="0 0 2295 2284" enable-background="new 0 0 2295 2284" xml:space="preserve">
<path fill="#888888" d="M1506.867,316.316c-326.709-326.739-858.464-326.739-1185.173,0
	c-326.619,326.769-326.619,858.389,0,1185.143c290.946,290.875,744.091,322.014,1070.56,94.888
	c6.945,32.504,22.71,63.494,47.879,88.798l475.854,475.688c69.236,69.208,181.302,69.208,250.391,0
	c69.193-69.194,69.193-181.228,0-250.375l-475.896-475.792c-25.124-25.199-56.188-40.949-88.738-47.729
	C1829.046,1060.347,1797.877,607.385,1506.867,316.316z M1304.3,1298.848c-215.073,214.971-564.945,214.971-780.021,0
	c-214.863-215.035-214.863-564.842,0-779.877c215.075-214.996,564.947-214.996,780.021,0
	C1519.336,734.006,1519.336,1083.812,1304.3,1298.848z"/>
</svg>
